<?xml version="1.0" standalone="no"?>
<!DOCTYPE svg PUBLIC "-//W3C//DTD SVG 20010904//EN"
 "http://www.w3.org/TR/2001/REC-SVG-20010904/DTD/svg10.dtd">
<svg version="1.0" xmlns="http://www.w3.org/2000/svg"
 width="842.000000pt" height="842.000000pt" viewBox="0 0 842.000000 842.000000"
 preserveAspectRatio="xMidYMid meet">
<metadata>
Created by potrace 1.11, written by Peter Selinger 2001-2013
</metadata>
<g transform="translate(0.000000,842.000000) scale(0.100000,-0.100000)"
fill="#000000" stroke="none">
<path d="M4029 6946 c-2 -2 -39 -6 -82 -10 -159 -13 -487 -96 -642 -161 -16
-7 -57 -23 -90 -36 -54 -21 -327 -155 -365 -179 -8 -5 -58 -35 -110 -67 -89
-53 -126 -78 -272 -183 -84 -61 -83 -59 -80 -171 2 -55 0 -99 -5 -100 -4 -1
-57 -2 -117 -4 l-110 -2 -29 -34 c-42 -50 -97 -124 -155 -210 -113 -168 -242
-429 -318 -644 -54 -153 -130 -443 -149 -575 -4 -25 -13 -82 -19 -128 l-13
-83 74 -69 c40 -38 73 -71 73 -75 0 -3 -36 -42 -79 -87 -69 -71 -79 -85 -76
-112 2 -17 6 -58 10 -91 10 -99 52 -292 90 -420 111 -363 291 -714 534 -1038
l65 -87 103 4 103 4 1 -26 c1 -15 2 -67 3 -116 l2 -89 51 -46 c157 -142 487
-328 768 -434 121 -45 236 -84 271 -92 10 -2 71 -17 135 -34 65 -16 134 -32
155 -35 22 -3 50 -8 64 -11 63 -13 78 -15 125 -21 28 -3 63 -8 78 -10 25 -4
38 5 100 71 l72 75 83 -80 83 -80 64 5 c35 2 77 7 92 9 70 12 92 16 143 26
127 24 395 105 495 149 11 5 45 19 75 31 213 87 526 270 743 437 l58 45 -5
104 -6 104 88 1 c48 1 101 1 118 1 28 -1 39 8 90 71 152 190 314 480 411 737
58 153 114 329 129 403 2 10 5 26 8 35 3 9 7 28 10 42 3 14 7 36 10 50 15 68
26 128 30 160 3 19 7 51 10 70 18 111 21 102 -62 180 l-76 71 82 82 81 82 -4
60 c-12 165 -83 476 -139 615 -8 19 -29 73 -46 120 -32 82 -146 323 -192 405
-45 78 -156 254 -168 265 -3 3 -23 31 -44 62 -21 32 -46 65 -56 75 -9 10 -24
30 -33 44 -17 26 -18 26 -122 22 l-105 -5 -1 71 c-2 174 0 164 -33 191 -30 24
-39 32 -69 56 -84 70 -291 197 -446 274 -205 102 -544 222 -725 256 -11 2 -30
6 -41 8 -77 16 -176 35 -210 40 -22 4 -58 9 -80 13 -68 10 -77 6 -146 -69
l-67 -73 -38 35 c-20 19 -58 55 -84 80 -44 42 -62 54 -71 46z m186 -2260 c0
-212 -3 -387 -5 -390 -3 -2 -5 171 -6 385 0 214 2 389 6 389 3 0 6 -173 5
-384z m-8 -443 c-3 -10 -5 -4 -5 12 0 17 2 24 5 18 2 -7 2 -21 0 -30z"/>
</g>
</svg>
